<?xml version="1.0" standalone="no"?>
<!DOCTYPE svg PUBLIC "-//W3C//DTD SVG 20010904//EN"
 "http://www.w3.org/TR/2001/REC-SVG-20010904/DTD/svg10.dtd">
<svg version="1.0" xmlns="http://www.w3.org/2000/svg"
 width="260.000000pt" height="260.000000pt" viewBox="0 0 260.000000 260.000000"
 preserveAspectRatio="xMidYMid meet">
<metadata>
Created by potrace 1.11, written by Peter Selinger 2001-2013
</metadata>
<g transform="translate(0.000000,260.000000) scale(0.100000,-0.100000)"
fill="#000000" stroke="none">
<path d="M1195 2407 c-49 -23 -97 -69 -116 -113 -14 -30 -99 -401 -99 -430 0
-2 -52 -4 -116 -4 -86 0 -125 -4 -150 -16 -81 -38 -143 -157 -125 -237 19 -82
69 -107 211 -107 80 0 100 -3 100 -14 0 -8 -36 -189 -81 -403 -73 -352 -80
-396 -77 -479 7 -183 92 -278 308 -346 67 -21 93 -23 250 -22 150 0 193 4 301
27 313 66 530 169 568 270 17 45 13 118 -9 154 -48 79 -121 86 -256 26 -154
-69 -266 -99 -429 -113 -194 -17 -341 14 -363 77 -13 37 -11 44 74 454 41 196
74 359 74 362 0 3 172 7 383 9 l383 3 42 28 c111 73 141 216 62 292 l-31 30
-380 3 c-208 1 -379 6 -379 9 0 4 18 96 41 205 46 224 46 250 -5 306 -30 32
-39 36 -92 39 -36 2 -71 -2 -89 -10z"/>
</g>
</svg>
